<svg xmlns="http://www.w3.org/2000/svg" color="white" viewBox="0 0 360 720" font-family="ui-sans-serif, system-ui, sans-serif" font-size="12">
  <defs>
    <marker id="arr" viewBox="0 0 10 10" refX="5" refY="5" markerWidth="7" markerHeight="7" orient="auto-start-reverse">
      <path d="M0,0 L10,5 L0,10 z" fill="currentColor"/>
    </marker>
  </defs>
  <g fill="none" stroke="currentColor" stroke-width="1.6" stroke-linejoin="round" stroke-linecap="round">
    <line x1="135" y1="68" x2="225" y2="68"/>
    <line x1="125" y1="80" x2="135" y2="68"/>
    <line x1="225" y1="68" x2="235" y2="80"/>
    <line x1="125" y1="80" x2="125" y2="332"/>
    <line x1="235" y1="80" x2="235" y2="332"/>
    <line x1="125" y1="332" x2="138" y2="350"/>
    <line x1="235" y1="332" x2="222" y2="350"/>
    <!-- Roughing body: scalloped/serrated side profile -->
    <path d="M 138,350 q 4,4 0,8 q -4,4 0,8 q 4,4 0,8 q -4,4 0,8 q 4,4 0,8 q -4,4 0,8 q 4,4 0,8 q -4,4 0,8 q 4,4 0,8 q -4,4 0,8 q 4,4 0,8 q -4,4 0,8 q 4,4 0,8 q -4,4 0,8 q 4,4 0,8 q -4,4 0,8 q 4,4 0,8 q -4,4 0,8 q 4,4 0,8 q -4,4 0,8 q 4,4 0,8 q -4,4 0,8 q 4,4 0,8 q -4,4 0,8 q 4,4 0,8 q -4,4 0,8 q 4,4 0,8 q -4,4 0,8 V 580"/>
    <path d="M 222,350 q -4,4 0,8 q 4,4 0,8 q -4,4 0,8 q 4,4 0,8 q -4,4 0,8 q 4,4 0,8 q -4,4 0,8 q 4,4 0,8 q -4,4 0,8 q 4,4 0,8 q -4,4 0,8 q 4,4 0,8 q -4,4 0,8 q 4,4 0,8 q -4,4 0,8 q 4,4 0,8 q -4,4 0,8 q 4,4 0,8 q -4,4 0,8 q 4,4 0,8 q -4,4 0,8 q 4,4 0,8 q -4,4 0,8 q 4,4 0,8 q -4,4 0,8 q 4,4 0,8 q -4,4 0,8 q 4,4 0,8 V 580"/>
    <line x1="138" y1="580" x2="222" y2="580" stroke-width="2"/>
    <g stroke-width="1.2">
      <path d="M 145,360 C 175,370 185,380 215,388"/>
      <path d="M 145,392 C 175,402 185,412 215,420"/>
      <path d="M 145,424 C 175,434 185,444 215,452"/>
      <path d="M 145,456 C 175,466 185,476 215,484"/>
      <path d="M 145,488 C 175,498 185,508 215,516"/>
      <path d="M 145,520 C 175,530 185,540 215,548"/>
      <path d="M 145,552 C 168,562 178,572 215,580"/>
    </g>
    <line x1="180" y1="68" x2="180" y2="600" stroke-dasharray="1 6" stroke-width="0.6" opacity="0.45"/>
  </g>
  <g fill="currentColor" stroke="currentColor" stroke-width="0.9" font-size="12">
    <line x1="125" y1="40" x2="235" y2="40" marker-start="url(#arr)" marker-end="url(#arr)"/>
    <line x1="125" y1="42" x2="125" y2="68" stroke-dasharray="3 3"/>
    <line x1="235" y1="42" x2="235" y2="68" stroke-dasharray="3 3"/>
    <text x="180" y="30" text-anchor="middle" stroke="none">Shank Diameter</text>
    <line x1="68" y1="68" x2="68" y2="580" marker-start="url(#arr)" marker-end="url(#arr)"/>
    <line x1="60" y1="68" x2="123" y2="68" stroke-dasharray="3 3"/>
    <line x1="60" y1="580" x2="138" y2="580" stroke-dasharray="3 3"/>
    <text x="52" y="324" text-anchor="middle" stroke="none" transform="rotate(-90 52,324)" font-weight="600">Overall Length</text>
    <line x1="270" y1="350" x2="270" y2="580" marker-start="url(#arr)" marker-end="url(#arr)"/>
    <line x1="224" y1="350" x2="273" y2="350" stroke-dasharray="3 3"/>
    <line x1="224" y1="580" x2="273" y2="580" stroke-dasharray="3 3"/>
    <text x="286" y="464" text-anchor="middle" stroke="none" transform="rotate(-90 286,464)">Flute Length</text>
    <line x1="138" y1="625" x2="222" y2="625" marker-start="url(#arr)" marker-end="url(#arr)"/>
    <line x1="138" y1="582" x2="138" y2="628" stroke-dasharray="3 3"/>
    <line x1="222" y1="582" x2="222" y2="628" stroke-dasharray="3 3"/>
    <text x="180" y="645" text-anchor="middle" stroke="none">Diameter</text>
  </g>
</svg>
