<?xml version="1.0" encoding="utf-8"?>
<!-- Generator: Adobe Illustrator 25.2.1, SVG Export Plug-In . SVG Version: 6.00 Build 0)  -->
<svg version="1.1" xmlns="http://www.w3.org/2000/svg" xmlns:xlink="http://www.w3.org/1999/xlink" x="0px" y="0px"
	 viewBox="0 0 612 792" style="enable-background:new 0 0 612 792;" xml:space="preserve">
<style type="text/css">
	.st0{fill:#2C4A78;}
	.st1{fill:#FDD14F;}
	.st2{fill:#D0E6EE;}
	.st3{fill:#425D81;}
	.st4{fill:#597291;}
	.st5{fill:#F1E3B9;}
	.st6{fill:#9DADB4;}
	.st7{fill:#BDA661;}
	.st8{fill:#EACD78;}
	.st9{fill:#526985;}
	.st10{fill:#B09E66;}
	.st11{fill:#3B5575;}
	.st12{fill:#FEFEFE;}
	.st13{fill:#334F79;}
	.st14{fill:#4D678A;}
	.st15{fill:#C0C8D4;}
</style>
<g id="Layer_1">
	<g>
		<path class="st0" d="M456.24,671.17c-6.13,0-12.26-0.01-18.38-0.01c-0.18-0.82-0.35-1.65-0.53-2.47
			c2.25-8.68-0.92-11.23-9.92-11.19c-80.45,0.33-160.89,0.34-241.34-0.01c-9.16-0.04-11.99,2.74-9.79,11.26
			c-0.2,0.81-0.4,1.62-0.6,2.42c-6.13,0-12.26-0.01-18.38-0.01c-0.18-0.82-0.35-1.65-0.53-2.47c0.33-5.1,3.1-11.17-6.41-11.08
			c-27.97,0.25-55.95-0.06-83.92,0.21c-6.62,0.06-12.43,2.35-11.74,10.93c-0.2,0.81-0.4,1.62-0.6,2.43c-14.99,0-29.97,0-48.16,0
			c16.48-10.62,30.22-19.74,44.24-28.41c6.14-3.8,13.33-3.72,20.41-3.71c51.41,0.06,102.82-0.24,154.22,0.27
			c9.94,0.1,12.21-2.89,11.97-12.4c-0.67-26.47-0.11-52.97-0.29-79.45c-0.06-9.62,2.57-18.39,10.72-23.29
			c7.26-4.37,8.74-9.64,8.16-17.18c-0.55-7.23-0.12-14.54-0.12-22.91c-20.87,7.9-39.87,7.85-56.96-6.31
			c-4.57-3.79-7.06,0.66-10.01,2.53c-43.93,27.77-95.46,25.5-133.25-7.02c-31.11-26.77-43.42-61.57-36.5-101.63
			c7.29-42.18,33.05-70.72,73.01-85.17c48.64-17.59,96.4-37.03,142.09-61.31c30.23-16.06,56.97,0.04,56.85,34.4
			c-0.06,17.71-0.06,17.71,17.3,17.71c15.6,0,15.6,0,15.27-16.15c-0.5-24.35,9.03-37.91,29.39-42.13
			c8.51-1.76,16.29,0.39,23.57,4.33c47.26,25.57,96.81,45.84,147.32,63.89c60.34,21.56,89.39,89.01,63.65,147.87
			c-24.91,56.97-94.54,80.9-150.57,51.73c-2.41-1.25-5.02-2.33-7.06-4.05c-7.22-6.1-13.07-6.44-21.69-0.43
			c-14.75,10.29-31.6,8.85-49.36,1.63c0,10.98,0.13,20.92-0.07,30.86c-0.08,3.84,2.21,5.28,4.96,7.02
			c10.18,6.43,13.92,16.05,13.85,27.8c-0.17,26.48,0.3,52.98-0.26,79.45c-0.18,8.39,2.41,10.23,10.43,10.17
			c50.24-0.37,100.48,0.09,150.72-0.37c13.81-0.13,25.86,2.49,36.99,11.1c9.38,7.25,19.82,13.12,32.2,21.16c-17.79,0-32.74,0-47.7,0
			c-0.18-0.82-0.35-1.65-0.53-2.47c-0.55-9.28-6.84-11-14.46-11c-25.96,0.01-51.93,0.4-77.87-0.21c-9.21-0.21-11.89,2.83-9.73,11.27
			C456.64,669.56,456.44,670.37,456.24,671.17z M269.53,638.69c12.53,0,25.06-0.01,37.59-0.01c14.78,0.16,29.57,0.22,44.35,0.53
			c10.55,0.22,6.32-7.67,6.65-12.48c0.33-4.81,2.62-11.5-6.88-11.16c-14.77,0.53-29.57,0.42-44.35,0.59
			c-12.39-0.01-24.78-0.01-37.17-0.02c-9.04-1.68-14.94-1.6-14.95,11.24C254.77,640.02,260.31,640.55,269.53,638.69z M271.05,269.34
			c0.12-5.37,0.23-10.73,0.35-16.1c-3.46-13.3-11.72-19.19-22.11-14.43c-14.77,6.77-29.05,14.63-44.88,22.71
			c10.86,3.53,19.54,7.66,27.89,12.48c13.91,10.1,24.78,22.87,34.5,38c1.15-11.76,2.3-23.53,3.45-35.29
			C272.45,274.47,271.98,271.93,271.05,269.34z M380.19,247.79c-5.4-3.03-10.56-6.65-16.25-8.96c-10.21-4.15-21.35,2.63-21.85,13.65
			c-0.91,20.08,1.56,39.95,5.16,60.6c5.64-8.29,10.61-15.6,15.58-22.91c11.96-13.96,27.54-22.46,46.32-29.04
			C398.3,256.13,389.25,251.96,380.19,247.79z M368.1,316.01c-9.47,22.2-11.86,44.17,2.17,65.59c11.64,29.6,58.77,48.07,93.57,28.07
			c8.95-3.71,15.03-10.96,21.22-17.84c27.82-30.91,16.44-86.62-21.05-103.93c-4.07-3.79-9.05-5.62-14.35-6.98
			C415.86,272.29,389.24,283.71,368.1,316.01z M120.29,316c-8.83,22.18-12.28,44.17,2.18,65.57c14.13,30.07,57.27,48.02,93.55,28.12
			c8.94-3.73,15.33-10.77,21.19-17.89c28.54-34.64,15.98-87.16-21.02-103.91c-4.09-3.77-9.05-5.62-14.35-6.97
			C168.03,272.3,141.47,283.69,120.29,316z M325.32,297.49c-11.16-4.52-22.7-1.09-34.06-1.5c-3.86-0.14-4.4,3.48-4.97,6.7
			c-2.1,11.81-4.33,23.6-6.65,35.37c-0.85,4.3-1.15,7.78,4.9,7.78c15.14,0,30.28,0.2,45.42,0.24c5.56,0.01,5.8-2.65,3.02-6.58
			C330.43,325.5,327.87,311.49,325.32,297.49z M290.82,385.97c11.18,2.97,22.4,2.07,33.54-0.04c21.26-4.03,21.74-4.9,15.27-24.78
			c-0.59-1.81-1.61-3.49-2.43-5.22c-19.45-4.47-39.1-1.2-58.65-1.32c-1.23-0.01-2.79,1.37-3.67,2.5
			c-10.29,13.32-7.03,23.19,9.13,27.72C286.22,385.44,288.55,385.6,290.82,385.97z M283.85,517.1c7.7,0,15.39,0,23.09-0.01
			c8.54,0.17,17.09,0.12,25.62,0.58c5.82,0.31,7.28-2.32,7.12-7.62c-0.39-13.2-0.39-26.41-0.55-39.62c1.67-7.57-2.13-9.3-8.89-9.17
			c-15.78,0.29-31.59,0.46-47.36-0.07c-7.43-0.25-9.84,2.35-8.38,9.29c-0.17,12.7,0.04,25.41-0.64,38.08
			C273.42,516.6,276.38,519.1,283.85,517.1z M365.61,418.99c-3.26-6.09-6.51-12.17-9.77-18.26c-1.55-2.9-3.04-4.87-7.09-3.02
			c-20.74,9.49-42.64,8.99-64.66,6.96c-7.64-2.66-15.99-8.59-22.73-7.12c-7.85,1.71-8.62,13.53-13.62,20.27
			c-2.26,3.04-7.16,7.13-2.34,11.02c6.83,5.5,9.89,17.41,20.99,15.72c24.01-3.65,48.34-3.43,71.92-0.76
			c13.79,1.56,19.2-4.56,26.95-11.59C370.53,427.45,370.87,423.55,365.61,418.99z M103.08,303.72c-4.77,1.58-9.66,2.87-14.3,4.77
			c-50.46,20.66-70.04,91.03-36.8,132.01c3.36,7.2,8.67,12.85,14.65,17.86c44.45,37.26,103.16,27.07,143.86-24.41
			c-0.27-0.17-0.57-0.52-0.81-0.49c-1.88,0.3-3.77,0.61-5.63,1.04c-23.76,5.4-46.42,2.58-67.15-10.41
			c-33.94-21.25-46.18-52.79-42.04-91.67c3.09-9.23,6.18-18.46,9.27-27.69c0.44-0.46,1.33-1.22,1.26-1.32
			C104.49,302.14,103.75,302.79,103.08,303.72z M414.67,444.97l-0.32,0.04c0.6,7.03,7.44,8.34,11.53,11.8
			c35.9,30.3,83.04,32.22,117.75,3.86c27.88-22.78,39.53-53.08,31.89-88.48c-6.9-31.99-25.54-55.36-57.95-65.73
			c-1.57-2.54-4.22-2.17-6.62-2.47c-0.56-0.4-1.36-1.26-1.62-1.11c-1.49,0.8-0.6,1.71,0.11,2.55c0.74,2.2,1.39,4.44,2.24,6.59
			c22.76,57.22-9.21,114.06-69.68,124.42c-13.57,2.32-26.5-1.1-40.44-3.21c2.41,4.46,4.87,7.27,8.35,9.13
			C411.11,443.93,411.63,446.77,414.67,444.97z M357.84,547.78c0.57-8.29-4.85-11.11-11.56-11.18c-26.63-0.28-53.26-0.29-79.89,0.02
			c-7.77,0.09-12.3,4.23-10.58,12.83c-3.04,12.14,4.65,10.82,12.18,9.71c3.97,1.48,10.77-1.52,11.34,5.16c0.59,7-6.29,3.41-9.6,5.05
			c-11.03-2.44-16.81,0.73-14.54,13.18c0.61,3.34,0.61,6.97,0,10.3c-2.27,12.44,3.46,15.6,14.5,13.1c12.42,0,24.83-0.01,37.25-0.01
			c7.72,0.17,15.44,0.48,23.16,0.49c30.48,0.06,30.31,0.03,28.36-30.38c-0.36-5.55-2.1-7.38-7.52-7.24
			c-14.67,0.39-29.36,0.4-44.04,0.56c-5.15-2.89-15.84,3.95-15.8-4.95c0.03-8.81,10.75-2.68,16.13-5.23
			c13.51,0.17,27.06-0.27,40.51,0.7C357.89,560.62,359.9,556.34,357.84,547.78z M380.74,470.53c9.59,0.1,22.19-5.62,20.52-7.72
			c-5.65-7.12-12.33-13.45-18.87-19.83c-0.88-0.86-20.05,17.95-19.27,19.12C367.62,468.85,374.88,469.83,380.74,470.53z
			 M250.53,462.55c-18.72-22.64-19.84-22.76-35.9-3.81c-0.25,0.29-0.51,0.59-0.8,0.84c-3.72,3.11-1.83,4.72,1.35,6.78
			C225.57,473.07,238.55,471.8,250.53,462.55z"/>
		<path class="st1" d="M437.33,668.69c0.18,0.82,0.35,1.65,0.53,2.47c-87.39,0-174.78,0-262.17,0.01c0.2-0.81,0.4-1.62,0.6-2.42
			C263.3,668.73,350.31,668.71,437.33,668.69z"/>
		<path class="st1" d="M54.11,671.17c0.2-0.81,0.4-1.62,0.6-2.43c34.02-0.02,68.05-0.03,102.07-0.05c0.18,0.82,0.35,1.65,0.53,2.47
			C122.9,671.17,88.51,671.17,54.11,671.17z"/>
		<path class="st1" d="M558.9,668.69c0.18,0.82,0.35,1.65,0.53,2.47c-34.4,0-68.79,0-103.19,0.01c0.2-0.81,0.4-1.62,0.6-2.42
			C490.86,668.73,524.88,668.71,558.9,668.69z"/>
		<path class="st2" d="M94.85,332.43c-4.14,38.88,8.1,70.42,42.04,91.67c20.74,12.98,43.39,15.81,67.15,10.41
			c1.86-0.42,3.75-0.74,5.63-1.04c0.24-0.04,0.54,0.31,0.81,0.49c-40.7,51.48-99.4,61.67-143.86,24.41
			c-5.98-5.01-11.29-10.66-14.65-17.87c-3.56-25.41-3.68-50.36,9.73-73.52c5.32,0.88,10.86,2.72,14.46-3.55
			c2.88-5.02,0.67-8.88-2.72-12.51C79.65,343.67,84.82,335.23,94.85,332.43z M145.73,453.01c-1.17-5.55-4.17-9.1-10.38-8.6
			c-5.62,0.45-8.25,3.8-8.2,9.31c0.05,5.81,3.88,8.75,8.84,8.88C141.71,462.75,145.21,459.11,145.73,453.01z"/>
		<path class="st2" d="M517.56,306.47c32.41,10.36,51.05,33.74,57.95,65.73c7.64,35.4-4.01,65.7-31.89,88.48
			c-34.7,28.36-81.85,26.44-117.75-3.86c-4.1-3.46-10.93-4.77-11.53-11.8c19.19,2.63,38.38,2.97,57.56-0.12
			c-5.15,5.72-6.67,11.5,0.74,16.4c4.71,3.12,9.65,1.42,11.82-3.15c3.07-6.43,1.8-12.16-6.51-13.94c0.15-5.21,4.93-5.39,8.04-7.26
			c43.88-26.33,58.09-75.04,35.2-120.81C519.65,313.05,517.27,310.25,517.56,306.47z M554.55,359.19c-0.61-5.85-4.09-9.38-9.78-9.45
			c-5.91-0.07-9.86,4.83-9.88,9.58c-0.02,3.77,3.34,8.41,9.23,8.59C550.41,368.11,553.32,364.9,554.55,359.19z"/>
		<path class="st3" d="M463.84,409.67c-34.79,20-81.92,1.53-93.57-28.07c-0.85-18.99-0.08-37.58,10.67-54.4
			c2.19-3.42,5.79-6.38,5.7-11.07c0.81-0.03,1.62-0.06,2.43-0.09c3.2,0.4,6.85-0.99,9.28,2.39c0.07,2.95-1.92,4.9-3.33,7.2
			c-8.83,14.43-8.14,36.48,1.36,48.04c12.62,15.35,29.85,19.82,48.76,14.01c6.18-1.9,9.79-7.59,16.11-8.58
			C464.42,389.09,459.85,399.74,463.84,409.67z"/>
		<path class="st3" d="M216.03,409.69c-36.28,19.89-79.43,1.95-93.55-28.12c-2.66-23.84,4.63-45.2,16.35-65.45
			c0.81-0.03,1.62-0.07,2.43-0.1c3.07,0.05,6.13,0.11,9.2,0.16c0.03,0.8,0.06,1.61,0.09,2.41c-0.68,1.77-1.12,3.68-2.09,5.27
			c-9.68,15.96-9.94,36.92-0.52,49.11c11.59,14.99,29.63,20.43,48.56,15.58c6.71-1.72,10.19-8.37,16.95-9.45
			C216.59,389.11,212.01,399.77,216.03,409.69z"/>
		<path class="st4" d="M398.35,318.43c-2.43-3.38-6.09-1.99-9.28-2.39c3.12-5.03,7.6-8.54,12.28-12.09
			c18.71-14.18,40.12-17.2,62.66-16.04c37.49,17.3,48.87,73.02,21.05,103.93c-6.19,6.88-12.27,14.13-21.22,17.84
			c-3.98-9.92,0.58-20.57-2.59-30.57c0.08-2.3,0.16-4.59,0.23-6.89c9.79-4.97,13.64-16.66,9.26-28.11
			c6.04-6.6,12.43-13.02,10.52-23.24c-1.77-9.47-6.57-16.56-15.88-19.88c-10.98-3.91-19.58,0.72-27.3,8.09
			c-14.61-5.43-27.25-1.93-32.81,9.09C402.97,318.26,400.66,318.34,398.35,318.43z"/>
		<path class="st4" d="M216.03,409.69c-4.02-9.93,0.56-20.58-2.58-30.58c0.08-1.52,0.16-3.04,0.24-4.56
			c10.58-8.99,13.65-19.15,9.22-30.46c6.06-6.59,12.44-13.01,10.53-23.23c-1.76-9.47-6.57-16.56-15.88-19.88
			c-10.98-3.92-19.58,0.72-27.3,8.09c-9.49-4.65-18.48-2.84-27.31,1.98c-3.96,2.17-7.3,5.95-12.51,5.13
			c-3.07-0.05-6.13-0.11-9.2-0.16c3.11-5.03,7.6-8.53,12.28-12.09c18.7-14.19,40.12-17.17,62.66-16.05
			c37.01,16.75,49.57,69.26,21.02,103.91C231.36,398.92,224.97,405.96,216.03,409.69z"/>
		<path class="st5" d="M269.73,569.37c3.31-1.64,10.19,1.95,9.6-5.05c-0.57-6.68-7.37-3.68-11.35-5.16
			c-1.54-6.4-5.67-9.55-12.18-9.71c-1.72-8.6,2.81-12.74,10.58-12.83c26.63-0.31,53.26-0.3,79.89-0.02
			c6.71,0.07,12.13,2.89,11.56,11.18c-10.86,0-21.72,0.22-32.56-0.05c-8.78-0.22-14.99,2.99-18.06,11.47
			c-5.37,2.55-16.09-3.58-16.13,5.23c-0.03,8.91,10.66,2.07,15.81,4.95c0.02,12.19,0.03,24.37,0.04,36.56
			c-12.42,0-24.83,0.01-37.25,0.01C269.7,593.76,269.72,581.57,269.73,569.37z"/>
		<path class="st5" d="M437.33,668.69c-87.02,0.02-174.03,0.04-261.05,0.06c-2.2-8.52,0.63-11.3,9.79-11.26
			c80.45,0.35,160.89,0.34,241.34,0.01C436.41,657.46,439.58,660.02,437.33,668.69z"/>
		<path class="st6" d="M517.56,306.47c-0.29,3.78,2.08,6.58,3.63,9.66c22.89,45.78,8.68,94.48-35.2,120.81
			c-3.1,1.86-7.89,2.05-8.04,7.26c-2.02,0.23-4.03,0.46-6.05,0.69c-19.18,3.1-38.37,2.75-57.56,0.12c0,0,0.32-0.04,0.32-0.04
			c-0.72-2.46-2.83-2.37-4.77-2.6c-3.48-1.86-5.94-4.67-8.35-9.13c13.95,2.11,26.88,5.53,40.44,3.21
			c60.47-10.36,92.44-67.21,69.68-124.42c-0.86-2.15-1.5-4.39-2.24-6.59c0.54-0.44,1.05-0.92,1.52-1.44
			C513.34,304.3,516,303.93,517.56,306.47z"/>
		<path class="st6" d="M61.71,366.98c-13.41,23.16-13.29,48.11-9.73,73.52c-33.24-40.97-13.65-111.34,36.8-132.01
			c4.64-1.9,9.53-3.19,14.3-4.77c0.34,0.34,0.69,0.68,1.04,1.02c-3.09,9.23-6.18,18.46-9.27,27.69c-10.04,2.8-15.2,11.24-21.4,18.49
			c-4.62-1.92-9.1-2.25-12.48,2.15C57.36,357.78,59.04,362.47,61.71,366.98z"/>
		<path class="st7" d="M365.61,418.99c5.26,4.56,4.92,8.46-0.35,13.24c-7.75,7.03-13.16,13.15-26.95,11.59
			c-23.58-2.67-47.92-2.9-71.92,0.76c-11.1,1.69-14.16-10.22-20.99-15.72c-4.82-3.89,0.08-7.98,2.34-11.02
			c5-6.74,5.77-18.55,13.62-20.27c6.74-1.47,15.09,4.46,22.73,7.12c-8.55,12.51-6.15,26.83,5.63,27.82
			C315.99,434.71,341.94,432.58,365.61,418.99z"/>
		<path class="st8" d="M365.61,418.99c-23.67,13.59-49.62,15.72-75.9,13.51c-11.78-0.99-14.18-15.32-5.63-27.82
			c22.03,2.03,43.93,2.52,64.66-6.96c4.05-1.85,5.54,0.12,7.09,3.02C359.1,406.82,362.35,412.9,365.61,418.99z"/>
		<path class="st8" d="M306.94,605.94c-0.01-12.19-0.03-24.37-0.04-36.56c14.68-0.16,29.36-0.17,44.04-0.56
			c5.42-0.15,7.16,1.69,7.52,7.24c1.96,30.41,2.12,30.43-28.36,30.38C322.37,606.42,314.66,606.11,306.94,605.94z"/>
		<path class="st5" d="M274.49,470.49c-1.45-6.94,0.95-9.54,8.38-9.29c15.77,0.53,31.58,0.36,47.36,0.07
			c6.76-0.13,10.57,1.6,8.89,9.17c-6.16,0.03-12.32,0-18.47,0.12c-9.27,0.17-14.14,4.17-13.68,14.23
			c0.49,10.75,0.02,21.54-0.04,32.32c-7.7,0-15.39,0-23.09,0.01c-0.03-10.5-0.48-21.02,0.06-31.5
			C284.3,477.95,282.11,472.74,274.49,470.49z"/>
		<path class="st8" d="M306.94,517.1c0.05-10.77,0.52-21.57,0.04-32.32c-0.46-10.05,4.42-14.06,13.68-14.23
			c6.16-0.11,12.31-0.08,18.47-0.12c0.16,13.21,0.16,26.42,0.55,39.62c0.16,5.31-1.31,7.94-7.12,7.62
			C324.03,517.22,315.48,517.27,306.94,517.1z"/>
		<path class="st8" d="M337.21,355.92c0.82,1.74,1.84,3.41,2.43,5.22c6.47,19.89,5.99,20.75-15.27,24.78
			c-11.15,2.11-22.36,3.01-33.54,0.04c1.56-29.1,2.48-30.01,30.25-30.01C326.45,355.96,331.83,355.93,337.21,355.92z"/>
		<path class="st8" d="M325.32,297.49c2.55,14,5.1,28.01,7.66,42.01c-0.42,1.07-0.63,2.93-1.28,3.11
			c-9.8,2.63-20.89,3.99-29.23-0.19c-6.31-3.17-1.77-13.29-0.4-20.33c0.29-1.5,0.22-3.08,0.3-4.62
			c0.92-19.94,0.91-19.94,20.64-19.95C323.78,297.52,324.55,297.5,325.32,297.49z"/>
		<path class="st9" d="M216.2,287.89c-22.54-1.13-43.95,1.85-62.66,16.05c-4.68,3.55-9.17,7.06-12.28,12.09
			c-0.81,0.03-1.62,0.07-2.43,0.1c-6.18-0.04-12.35-0.08-18.53-0.13c21.18-32.31,47.73-43.69,81.55-35.08
			C207.15,282.27,212.11,284.13,216.2,287.89z"/>
		<path class="st9" d="M464.01,287.9c-22.55-1.15-43.96,1.87-62.66,16.04c-4.68,3.55-9.16,7.07-12.28,12.09
			c-0.81,0.03-1.62,0.06-2.43,0.09c-6.18-0.04-12.36-0.08-18.54-0.12c21.14-32.3,47.76-43.72,81.56-35.08
			C454.96,282.28,459.94,284.11,464.01,287.9z"/>
		<path class="st6" d="M362.84,290.17c-4.97,7.31-9.94,14.62-15.58,22.91c-3.6-20.65-6.07-40.52-5.16-60.6
			c0.5-11.02,11.64-17.8,21.85-13.65c5.69,2.31,10.85,5.93,16.25,8.96c-4.77,1.45-9.63,2.74-12.29,7.59
			c-5.48-0.53-11.33-1.45-13.67,5.37c-2.17,6.33,1.43,10.26,6.62,13.14C361.44,279.32,359.12,285.11,362.84,290.17z"/>
		<path class="st8" d="M306.9,616.15c14.78-0.16,29.58-0.06,44.35-0.59c9.5-0.34,7.2,6.35,6.88,11.16
			c-0.33,4.81,3.9,12.7-6.65,12.48c-14.78-0.3-29.57-0.36-44.35-0.53C307.04,631.17,306.97,623.66,306.9,616.15z"/>
		<path class="st5" d="M156.77,668.69c-34.02,0.02-68.05,0.04-102.07,0.05c-0.7-8.58,5.12-10.87,11.74-10.93
			c27.97-0.26,55.95,0.04,83.92-0.21C159.88,657.53,157.1,663.59,156.77,668.69z"/>
		<path class="st5" d="M558.9,668.69c-34.02,0.02-68.05,0.04-102.07,0.06c-2.16-8.44,0.52-11.49,9.73-11.27
			c25.95,0.61,51.91,0.22,77.87,0.21C552.07,657.69,558.35,659.41,558.9,668.69z"/>
		<path class="st10" d="M325.32,297.49c-0.77,0.01-1.55,0.03-2.32,0.03c-19.72,0.01-19.72,0.01-20.64,19.95
			c-0.07,1.54,0,3.12-0.3,4.62c-1.37,7.04-5.92,17.16,0.4,20.33c8.34,4.18,19.43,2.82,29.23,0.19c0.66-0.18,0.87-2.03,1.28-3.11
			c2.78,3.93,2.55,6.6-3.02,6.58c-15.14-0.04-30.28-0.24-45.42-0.24c-6.05,0-5.75-3.48-4.9-7.78c2.32-11.77,4.55-23.56,6.65-35.37
			c0.57-3.22,1.1-6.84,4.97-6.7C302.62,296.4,314.16,292.97,325.32,297.49z"/>
		<path class="st6" d="M232.3,274.01c-8.35-4.82-17.03-8.95-27.89-12.48c15.83-8.08,30.1-15.94,44.88-22.71
			c10.39-4.76,18.65,1.14,22.11,14.43c-4.36,1.48-8.71,2.96-13.07,4.44c-13.39-5.29-17.1-2.7-16.47,11.47
			C237.85,269.14,234.16,269.77,232.3,274.01z"/>
		<path class="st2" d="M232.3,274.01c1.86-4.24,5.54-4.87,9.56-4.85c10.99,6.84,13.88,5.8,18.04-6.46
			c-0.39-0.95-0.78-1.89-1.17-2.84c-0.28-0.7-0.41-1.42-0.4-2.17c4.36-1.48,8.71-2.96,13.07-4.44c-0.12,5.37-0.23,10.73-0.35,16.09
			c-1.94,2.28-1.39,4.82-0.8,7.38c-1.15,11.76-2.3,23.53-3.45,35.29C257.08,296.87,246.21,284.11,232.3,274.01z"/>
		<path class="st5" d="M306.9,616.15c0.07,7.51,0.15,15.02,0.22,22.53c-12.53,0-25.06,0.01-37.59,0.01
			c0.07-7.52,0.13-15.04,0.2-22.56C282.12,616.14,294.51,616.14,306.9,616.15z"/>
		<path class="st10" d="M337.21,355.92c-5.38,0.01-10.76,0.04-16.14,0.04c-27.77,0-28.69,0.91-30.25,30.01
			c-2.27-0.37-4.6-0.53-6.81-1.15c-16.15-4.52-19.41-14.4-9.13-27.72c0.88-1.14,2.43-2.51,3.67-2.5
			C298.11,354.72,317.75,351.45,337.21,355.92z"/>
		<path class="st2" d="M362.84,290.17c-3.72-5.06-1.39-10.85-1.99-16.28c12.85-3.83,14.22-7.41,7.05-18.51
			c2.67-4.85,7.53-6.14,12.29-7.59c9.06,4.17,18.11,8.34,28.96,13.35C390.38,267.71,374.8,276.21,362.84,290.17z"/>
		<path class="st11" d="M120.29,316c6.18,0.04,12.35,0.08,18.53,0.13c-11.72,20.25-19.01,41.61-16.35,65.45
			C108.02,360.17,111.47,338.17,120.29,316z"/>
		<path class="st11" d="M368.1,316.01c6.18,0.04,12.36,0.08,18.54,0.12c0.09,4.69-3.51,7.65-5.7,11.07
			c-10.75,16.81-11.51,35.41-10.67,54.4C356.24,360.18,358.63,338.21,368.1,316.01z"/>
		<path class="st12" d="M380.74,470.53c-5.86-0.69-13.12-1.68-17.62-8.43c-0.78-1.17,18.39-19.98,19.27-19.12
			c6.54,6.37,13.22,12.7,18.87,19.83C402.93,464.9,390.33,470.63,380.74,470.53z"/>
		<path class="st12" d="M250.53,462.55c-11.97,9.24-24.96,10.51-35.35,3.81c-3.19-2.06-5.07-3.67-1.35-6.78
			c0.29-0.25,0.55-0.54,0.8-0.84C230.69,439.8,231.81,439.92,250.53,462.55z"/>
		<path class="st8" d="M307.21,559.19c3.06-8.48,9.28-11.7,18.06-11.47c10.85,0.28,21.71,0.06,32.56,0.05
			c2.06,8.57,0.06,12.85-10.11,12.12C334.28,558.93,320.72,559.36,307.21,559.19z"/>
		<path class="st8" d="M269.73,569.37c-0.01,12.19-0.03,24.39-0.05,36.58c-11.04,2.5-16.77-0.66-14.5-13.1
			c0.61-3.33,0.61-6.97,0-10.3C252.93,570.1,258.7,566.93,269.73,569.37z"/>
		<path class="st8" d="M274.49,470.49c7.63,2.25,9.81,7.47,9.42,15.12c-0.53,10.47-0.09,20.99-0.06,31.5c-7.47,2-10.43-0.5-10-8.54
			C274.53,495.9,274.32,483.18,274.49,470.49z"/>
		<path class="st8" d="M269.73,616.13c-0.07,7.52-0.13,15.04-0.2,22.56c-9.22,1.86-14.76,1.33-14.75-11.32
			C254.79,614.53,260.69,614.45,269.73,616.13z"/>
		<path class="st8" d="M255.81,549.45c6.51,0.17,10.64,3.31,12.18,9.71C260.46,560.27,252.77,561.58,255.81,549.45z"/>
		<path class="st6" d="M270.25,276.72c-0.6-2.55-1.14-5.1,0.8-7.38C271.98,271.93,272.45,274.47,270.25,276.72z"/>
		<path class="st2" d="M409.9,442.37c1.94,0.23,4.05,0.14,4.77,2.6C411.63,446.77,411.11,443.93,409.9,442.37z"/>
		<path class="st6" d="M509.42,305.44c-0.7-0.84-1.59-1.75-0.11-2.55c0.27-0.14,1.07,0.72,1.63,1.11
			C510.47,304.52,509.96,305,509.42,305.44z"/>
		<path class="st6" d="M103.08,303.72c0.66-0.94,1.41-1.58,2.29-0.31c0.07,0.1-0.82,0.87-1.26,1.32
			C103.77,304.4,103.43,304.07,103.08,303.72z"/>
		<path class="st13" d="M145.73,453.01c-0.52,6.1-4.03,9.74-9.74,9.59c-4.96-0.13-8.8-3.08-8.84-8.88c-0.04-5.51,2.58-8.86,8.2-9.31
			C141.56,443.91,144.56,447.46,145.73,453.01z"/>
		<path class="st13" d="M61.71,366.98c-2.67-4.51-4.36-9.2-0.74-13.91c3.38-4.4,7.86-4.07,12.48-2.15c3.39,3.63,5.6,7.48,2.72,12.51
			C72.57,369.7,67.04,367.86,61.71,366.98z"/>
		<path class="st13" d="M554.55,359.19c-1.23,5.71-4.15,8.92-10.43,8.73c-5.89-0.18-9.25-4.82-9.23-8.59
			c0.02-4.75,3.97-9.65,9.88-9.58C550.46,349.8,553.94,353.34,554.55,359.19z"/>
		<path class="st0" d="M471.9,444.89c2.02-0.23,4.03-0.46,6.05-0.69c8.31,1.78,9.57,7.51,6.51,13.94
			c-2.17,4.56-7.11,6.27-11.82,3.15C465.24,456.39,466.76,450.61,471.9,444.89z"/>
		<path class="st13" d="M461.49,372.21c-0.08,2.3-0.15,4.59-0.23,6.89c-6.32,0.99-9.93,6.68-16.11,8.58
			c-18.91,5.81-36.14,1.35-48.76-14.01c-9.5-11.56-10.2-33.61-1.36-48.04c1.41-2.31,3.39-4.25,3.33-7.2
			c2.31-0.09,4.62-0.18,6.93-0.26c5.25,3.64,13.1,2.78,16.48,9.61c-12.94,5.65-16.55,13.52-10.82,23.6
			c-1.37,12.89,0.35,14.95,13.01,15.61c0.56,5.55,4.07,5.32,8.29,4.57c8.72-1.55,15.64-5.53,19.91-13.52
			C455.26,362.76,458.37,367.49,461.49,372.21z"/>
		<path class="st13" d="M213.69,374.55c-0.08,1.52-0.16,3.04-0.24,4.56c-6.77,1.08-10.24,7.72-16.95,9.44
			c-18.93,4.86-36.97-0.59-48.56-15.58c-9.42-12.19-9.16-33.15,0.52-49.11c0.97-1.59,1.41-3.51,2.09-5.28
			c8.93,0.17,17.37,1.62,23.39,9.19c-12.93,5.65-16.54,13.53-10.82,23.6c-1.37,12.87,0.35,14.94,13.01,15.61
			c0.7,6.44,5.43,5.56,9.48,4.77c8.29-1.61,14.52-6.36,18.72-13.72C209.08,362.61,210.32,369.19,213.69,374.55z"/>
		<path class="st14" d="M173.94,327.79c-6.03-7.57-14.46-9.02-23.39-9.19c-0.03-0.8-0.06-1.61-0.09-2.41
			c5.2,0.83,8.54-2.96,12.51-5.13c8.83-4.83,17.82-6.63,27.31-1.98c-3.5,6.6-4.83,13.69-4.84,21.08
			C181.6,329.37,177.77,328.58,173.94,327.79z"/>
		<path class="st15" d="M438.09,309.07c7.72-7.37,16.32-12,27.3-8.09c9.31,3.32,14.11,10.41,15.88,19.88
			c1.91,10.22-4.48,16.64-10.52,23.24c-7.46,3.69-15.35,2.87-23.22,2.18c-6.07-4.21-10.5-9.87-14.27-16.12
			C433.26,322.76,434.6,315.67,438.09,309.07z"/>
		<path class="st14" d="M438.09,309.07c-3.49,6.6-4.83,13.69-4.84,21.08c-3.83-0.79-7.66-1.58-11.49-2.37
			c-3.38-6.83-11.24-5.98-16.49-9.61C410.84,307.15,423.48,303.64,438.09,309.07z"/>
		<path class="st14" d="M447.52,346.28c7.87,0.69,15.76,1.52,23.22-2.18c4.38,11.44,0.53,23.13-9.26,28.11
			c-3.11-4.72-6.23-9.45-9.35-14.17C452.46,353.39,446.84,351.07,447.52,346.28z"/>
		<path class="st15" d="M185.43,330.16c0.01-7.4,1.35-14.49,4.84-21.08c7.72-7.37,16.32-12,27.3-8.09
			c9.31,3.32,14.11,10.41,15.88,19.88c1.9,10.22-4.48,16.64-10.53,23.23c-7.46,3.71-15.34,2.87-23.21,2.18
			C193.63,342.07,189.19,336.41,185.43,330.16z"/>
		<path class="st14" d="M199.7,346.28c7.87,0.69,15.76,1.53,23.21-2.18c4.43,11.31,1.35,21.47-9.22,30.46
			c-3.37-5.36-4.6-11.94-9.37-16.51C204.63,353.39,199.02,351.07,199.7,346.28z"/>
		<path class="st13" d="M367.9,255.37c7.17,11.1,5.8,14.68-7.05,18.51c-5.19-2.89-8.79-6.82-6.62-13.14
			C356.57,253.93,362.42,254.84,367.9,255.37z"/>
		<path class="st13" d="M259.9,262.7c-4.16,12.26-7.06,13.29-18.04,6.46c-0.63-14.17,3.08-16.76,16.47-11.47
			c-0.01,0.75,0.12,1.48,0.4,2.17C259.12,260.8,259.51,261.75,259.9,262.7z"/>
		<path class="st6" d="M259.9,262.7c-0.39-0.95-0.78-1.89-1.17-2.84C259.12,260.8,259.51,261.75,259.9,262.7z"/>
		<path class="st3" d="M447.52,346.28c-0.68,4.79,4.94,7.11,4.62,11.76c-4.27,7.99-11.19,11.97-19.91,13.52
			c-4.22,0.75-7.73,0.98-8.29-4.57c4.62-4.63,7.7-9.84,2.92-15.87c-5.11-6.44-10.66-3.31-15.92,0.27
			c-5.73-10.08-2.12-17.95,10.82-23.6c3.83,0.79,7.66,1.58,11.49,2.37C437.02,336.41,441.45,342.06,447.52,346.28z"/>
		<path class="st15" d="M410.94,351.39c5.26-3.57,10.82-6.7,15.92-0.27c4.79,6.03,1.7,11.24-2.92,15.87
			C411.29,366.34,409.57,364.27,410.94,351.39z"/>
		<path class="st3" d="M199.7,346.28c-0.68,4.79,4.93,7.12,4.62,11.77c-4.2,7.36-10.43,12.11-18.72,13.72
			c-4.05,0.79-8.78,1.67-9.48-4.77c4.62-4.63,7.7-9.84,2.92-15.87c-5.11-6.44-10.66-3.31-15.92,0.27
			c-5.72-10.07-2.11-17.95,10.82-23.6c3.83,0.79,7.66,1.58,11.49,2.37C189.19,336.41,193.63,342.07,199.7,346.28z"/>
		<path class="st15" d="M163.12,351.39c5.26-3.57,10.82-6.7,15.92-0.27c4.79,6.03,1.7,11.24-2.92,15.87
			C163.46,366.32,161.74,364.26,163.12,351.39z"/>
		<g>
			<path class="st13" d="M461.72,377.09c-7.69,8.03-18.52,13.03-30.52,13.03c-23.34,0-42.26-18.93-42.26-42.27
				c0-11.89,4.91-22.64,12.82-30.33c7.81,1.82,15.18,4.78,21.93,8.7c-8.95,3.1-15.38,11.61-15.38,21.63c0,3.56,0.81,6.93,2.26,9.93
				c0.25,4.12,3.16,7.52,7.04,8.49c3.8,2.82,8.5,4.48,13.59,4.48c10.07,0,18.62-6.5,21.68-15.53
				C456.85,361.95,459.85,369.3,461.72,377.09z"/>
			<path class="st3" d="M452.88,355.22c-3.06,9.03-11.61,15.53-21.68,15.53c-5.09,0-9.79-1.66-13.59-4.48
				c0.73,0.19,1.51,0.29,2.3,0.29c5.17,0,9.36-4.19,9.36-9.36c0-5.17-4.19-9.37-9.36-9.37c-5.17,0-9.36,4.2-9.36,9.37
				c0,0.19,0.01,0.39,0.02,0.58c-1.45-3-2.26-6.37-2.26-9.93c0-10.02,6.43-18.53,15.38-21.63
				C435.76,333.19,445.84,343.21,452.88,355.22z"/>
			<path class="st15" d="M429.27,357.2c0,5.17-4.19,9.36-9.36,9.36c-0.79,0-1.57-0.1-2.3-0.29c-3.88-0.97-6.79-4.37-7.04-8.49
				c-0.01-0.19-0.02-0.39-0.02-0.58c0-5.17,4.19-9.37,9.36-9.37C425.08,347.83,429.27,352.03,429.27,357.2z"/>
			<path class="st9" d="M471.47,289.84c-6.31-1.56-12.91-2.39-19.7-2.39c-24.71,0-46.86,10.93-61.89,28.23
				c-2.14-0.17-4.31-0.26-6.49-0.26c-5.78,0-11.42,0.61-16.86,1.77c11.32-23.92,35.69-40.47,63.91-40.47
				C445.74,276.72,459.9,281.58,471.47,289.84z"/>
			<path class="st4" d="M501.12,347.4c0,27.41-15.61,51.19-38.43,62.91c0.84-4.64,1.27-9.43,1.27-14.31
				c0-6.51-0.77-12.84-2.24-18.91c7.28-7.59,11.75-17.89,11.75-29.24c0-2.61-0.24-5.17-0.69-7.65c4.64-4.18,7.55-10.24,7.55-16.98
				c0-12.65-10.25-22.9-22.9-22.9c-6.21,0-11.86,2.48-15.98,6.51c-3.28-0.82-6.71-1.25-10.25-1.25c-11.45,0-21.84,4.55-29.44,11.94
				c-3.86-0.9-7.83-1.52-11.88-1.84c15.03-17.3,37.18-28.23,61.89-28.23c6.79,0,13.39,0.83,19.7,2.39
				C489.42,302.65,501.12,323.66,501.12,347.4z"/>
			<path class="st14" d="M473.47,347.85c0,11.35-4.47,21.65-11.75,29.24c-1.87-7.79-4.87-15.14-8.84-21.87
				c-7.04-12.01-17.12-22.03-29.19-29c-6.75-3.92-14.12-6.88-21.93-8.7c7.6-7.39,17.99-11.94,29.44-11.94
				c3.54,0,6.97,0.43,10.25,1.25c-4.27,4.15-6.92,9.96-6.92,16.39c0,0.67,0.03,1.33,0.09,1.98c0.9,10.58,9.01,19.1,19.39,20.66
				c1.12,0.16,2.26,0.25,3.42,0.25c5.91,0,11.29-2.23,15.35-5.91C473.23,342.68,473.47,345.24,473.47,347.85z"/>
			<path class="st11" d="M369.8,369.42c0,5.89,0.62,11.63,1.81,17.16c-7.49-11.22-11.85-24.69-11.85-39.18
				c0-10.81,2.43-21.05,6.77-30.21c5.44-1.16,11.08-1.77,16.86-1.77c2.18,0,4.35,0.09,6.49,0.26
				C377.37,330.06,369.8,348.85,369.8,369.42z"/>
			<path class="st3" d="M463.96,396c0,4.88-0.43,9.67-1.27,14.31c-9.67,4.97-20.63,7.77-32.25,7.77c-24.54,0-46.16-12.51-58.83-31.5
				c-1.19-5.53-1.81-11.27-1.81-17.16c0-20.57,7.57-39.36,20.08-53.74c4.05,0.32,8.02,0.94,11.88,1.84
				c-7.91,7.69-12.82,18.44-12.82,30.33c0,23.34,18.92,42.27,42.26,42.27c12,0,22.83-5,30.52-13.03
				C463.19,383.16,463.96,389.49,463.96,396z"/>
			<path class="st15" d="M480.33,323.22c0,6.74-2.91,12.8-7.55,16.98c-4.06,3.68-9.44,5.91-15.35,5.91c-1.16,0-2.3-0.09-3.42-0.25
				c-10.38-1.56-18.49-10.08-19.39-20.66c-0.06-0.65-0.09-1.31-0.09-1.98c0-6.43,2.65-12.24,6.92-16.39
				c4.12-4.03,9.77-6.51,15.98-6.51C470.08,300.32,480.33,310.57,480.33,323.22z"/>
		</g>
		<g>
			<path class="st13" d="M214.04,377.09c-7.69,8.03-18.52,13.03-30.52,13.03c-23.34,0-42.26-18.93-42.26-42.27
				c0-11.89,4.91-22.64,12.82-30.33c7.81,1.82,15.18,4.78,21.93,8.7c-8.95,3.1-15.38,11.61-15.38,21.63c0,3.56,0.81,6.93,2.26,9.93
				c0.25,4.12,3.16,7.52,7.04,8.49c3.8,2.82,8.5,4.48,13.59,4.48c10.07,0,18.62-6.5,21.68-15.53
				C209.17,361.95,212.17,369.3,214.04,377.09z"/>
			<path class="st3" d="M205.2,355.22c-3.06,9.03-11.61,15.53-21.68,15.53c-5.09,0-9.79-1.66-13.59-4.48
				c0.73,0.19,1.51,0.29,2.3,0.29c5.17,0,9.36-4.19,9.36-9.36c0-5.17-4.19-9.37-9.36-9.37c-5.17,0-9.36,4.2-9.36,9.37
				c0,0.19,0.01,0.39,0.02,0.58c-1.45-3-2.26-6.37-2.26-9.93c0-10.02,6.43-18.53,15.38-21.63
				C188.08,333.19,198.16,343.21,205.2,355.22z"/>
			<path class="st15" d="M181.59,357.2c0,5.17-4.19,9.36-9.36,9.36c-0.79,0-1.57-0.1-2.3-0.29c-3.88-0.97-6.79-4.37-7.04-8.49
				c-0.01-0.19-0.02-0.39-0.02-0.58c0-5.17,4.19-9.37,9.36-9.37C177.4,347.83,181.59,352.03,181.59,357.2z"/>
			<path class="st9" d="M223.79,289.84c-6.31-1.56-12.91-2.39-19.7-2.39c-24.71,0-46.86,10.93-61.89,28.23
				c-2.14-0.17-4.31-0.26-6.49-0.26c-5.78,0-11.42,0.61-16.86,1.77c11.32-23.92,35.69-40.47,63.91-40.47
				C198.06,276.72,212.22,281.58,223.79,289.84z"/>
			<path class="st4" d="M253.44,347.4c0,27.41-15.61,51.19-38.43,62.91c0.84-4.64,1.27-9.43,1.27-14.31
				c0-6.51-0.77-12.84-2.24-18.91c7.28-7.59,11.75-17.89,11.75-29.24c0-2.61-0.24-5.17-0.69-7.65c4.64-4.18,7.55-10.24,7.55-16.98
				c0-12.65-10.25-22.9-22.9-22.9c-6.21,0-11.86,2.48-15.98,6.51c-3.28-0.82-6.71-1.25-10.25-1.25c-11.45,0-21.84,4.55-29.44,11.94
				c-3.86-0.9-7.83-1.52-11.88-1.84c15.03-17.3,37.18-28.23,61.89-28.23c6.79,0,13.39,0.83,19.7,2.39
				C241.74,302.65,253.44,323.66,253.44,347.4z"/>
			<path class="st14" d="M225.79,347.85c0,11.35-4.47,21.65-11.75,29.24c-1.87-7.79-4.87-15.14-8.84-21.87
				c-7.04-12.01-17.12-22.03-29.19-29c-6.75-3.92-14.12-6.88-21.93-8.7c7.6-7.39,17.99-11.94,29.44-11.94
				c3.54,0,6.97,0.43,10.25,1.25c-4.27,4.15-6.92,9.96-6.92,16.39c0,0.67,0.03,1.33,0.09,1.98c0.9,10.58,9.01,19.1,19.39,20.66
				c1.12,0.16,2.26,0.25,3.42,0.25c5.91,0,11.29-2.23,15.35-5.91C225.55,342.68,225.79,345.24,225.79,347.85z"/>
			<path class="st11" d="M122.12,369.42c0,5.89,0.62,11.63,1.81,17.16c-7.49-11.22-11.85-24.69-11.85-39.18
				c0-10.81,2.43-21.05,6.77-30.21c5.44-1.16,11.08-1.77,16.86-1.77c2.18,0,4.35,0.09,6.49,0.26
				C129.69,330.06,122.12,348.85,122.12,369.42z"/>
			<path class="st3" d="M216.28,396c0,4.88-0.43,9.67-1.27,14.31c-9.67,4.97-20.63,7.77-32.25,7.77c-24.54,0-46.16-12.51-58.83-31.5
				c-1.19-5.53-1.81-11.27-1.81-17.16c0-20.57,7.57-39.36,20.08-53.74c4.05,0.32,8.02,0.94,11.88,1.84
				c-7.91,7.69-12.82,18.44-12.82,30.33c0,23.34,18.92,42.27,42.26,42.27c12,0,22.83-5,30.52-13.03
				C215.51,383.16,216.28,389.49,216.28,396z"/>
			<path class="st15" d="M232.65,323.22c0,6.74-2.91,12.8-7.55,16.98c-4.06,3.68-9.44,5.91-15.35,5.91c-1.16,0-2.3-0.09-3.42-0.25
				c-10.38-1.56-18.49-10.08-19.39-20.66c-0.06-0.65-0.09-1.31-0.09-1.98c0-6.43,2.65-12.24,6.92-16.39
				c4.12-4.03,9.77-6.51,15.98-6.51C222.4,300.32,232.65,310.57,232.65,323.22z"/>
		</g>
	</g>
</g>
<g id="Layer_2">
</g>
</svg>
